<svg width="1200" height="720" viewBox="0 0 1200 720" fill="none" xmlns="http://www.w3.org/2000/svg">
  <rect width="1200" height="720" rx="34" fill="#081524"/>
  <rect x="60" y="56" width="1080" height="608" rx="30" fill="#10233B"/>
  <rect x="110" y="114" width="980" height="88" rx="24" fill="#132E4A"/>
  <rect x="110" y="240" width="392" height="374" rx="28" fill="#0D1D31"/>
  <rect x="540" y="240" width="550" height="170" rx="28" fill="#0D1D31"/>
  <rect x="540" y="444" width="550" height="170" rx="28" fill="#0D1D31"/>
  <path d="M280 300C303 254 348 228 398 228C473 228 528 283 528 356C528 368 526 379 522 390H214C205 376 200 360 200 342C200 299 234 264 276 264C278 264 279 264 280 264V300Z" fill="#62F3FF" fill-opacity="0.2"/>
  <path d="M332 334V414" stroke="#62F3FF" stroke-width="12" stroke-linecap="round"/>
  <path d="M300 364L332 332L364 364" stroke="#62F3FF" stroke-width="12" stroke-linecap="round" stroke-linejoin="round"/>
  <rect x="168" y="456" width="208" height="20" rx="10" fill="#DFF4FF"/>
  <rect x="168" y="494" width="144" height="14" rx="7" fill="#819BB7"/>
  <rect x="168" y="524" width="174" height="14" rx="7" fill="#819BB7"/>
  <rect x="580" y="278" width="280" height="24" rx="12" fill="#DFF4FF"/>
  <rect x="580" y="322" width="464" height="14" rx="7" fill="#819BB7"/>
  <rect x="580" y="482" width="232" height="92" rx="20" fill="url(#paint0_linear)"/>
  <rect x="840" y="482" width="210" height="92" rx="20" fill="url(#paint1_linear)"/>
  <defs>
    <linearGradient id="paint0_linear" x1="580" y1="482" x2="812" y2="574" gradientUnits="userSpaceOnUse">
      <stop stop-color="#62F3FF"/>
      <stop offset="1" stop-color="#1681CC"/>
    </linearGradient>
    <linearGradient id="paint1_linear" x1="840" y1="482" x2="1050" y2="574" gradientUnits="userSpaceOnUse">
      <stop stop-color="#FF7A18"/>
      <stop offset="1" stop-color="#FF4D6D"/>
    </linearGradient>
  </defs>
</svg>
