<svg width="1200" height="720" viewBox="0 0 1200 720" fill="none" xmlns="http://www.w3.org/2000/svg">
  <rect width="1200" height="720" rx="34" fill="#081524"/>
  <rect x="56" y="52" width="1088" height="616" rx="30" fill="#11263E"/>
  <rect x="100" y="96" width="264" height="528" rx="26" fill="#0D1D31"/>
  <rect x="396" y="96" width="704" height="116" rx="26" fill="#122A45"/>
  <rect x="396" y="244" width="214" height="170" rx="26" fill="#0D1D31"/>
  <rect x="640" y="244" width="214" height="170" rx="26" fill="#0D1D31"/>
  <rect x="886" y="244" width="214" height="170" rx="26" fill="#0D1D31"/>
  <rect x="396" y="446" width="704" height="178" rx="26" fill="#0D1D31"/>
  <circle cx="232" cy="194" r="56" fill="#CAFF70" fill-opacity="0.24"/>
  <path d="M232 160L260 176V212C260 232 246 250 232 258C218 250 204 232 204 212V176L232 160Z" stroke="#CAFF70" stroke-width="10" stroke-linejoin="round"/>
  <rect x="146" y="292" width="170" height="20" rx="10" fill="#DFF4FF"/>
  <rect x="146" y="332" width="144" height="14" rx="7" fill="#7F9DBA"/>
  <rect x="146" y="362" width="162" height="14" rx="7" fill="#7F9DBA"/>
  <rect x="146" y="404" width="118" height="36" rx="18" fill="#62F3FF" fill-opacity="0.18"/>
  <rect x="438" y="134" width="214" height="22" rx="11" fill="#DFF4FF"/>
  <rect x="688" y="134" width="166" height="18" rx="9" fill="#89A9C9"/>
  <rect x="438" y="282" width="130" height="94" rx="20" fill="url(#paint0_linear)"/>
  <rect x="682" y="282" width="130" height="94" rx="20" fill="url(#paint1_linear)"/>
  <rect x="928" y="282" width="130" height="94" rx="20" fill="url(#paint2_linear)"/>
  <rect x="434" y="488" width="214" height="24" rx="12" fill="#DFF4FF"/>
  <rect x="434" y="528" width="590" height="14" rx="7" fill="#7F9DBA"/>
  <rect x="434" y="558" width="540" height="14" rx="7" fill="#7F9DBA"/>
  <defs>
    <linearGradient id="paint0_linear" x1="438" y1="282" x2="568" y2="376" gradientUnits="userSpaceOnUse">
      <stop stop-color="#62F3FF"/>
      <stop offset="1" stop-color="#1681CC"/>
    </linearGradient>
    <linearGradient id="paint1_linear" x1="682" y1="282" x2="812" y2="376" gradientUnits="userSpaceOnUse">
      <stop stop-color="#CAFF70"/>
      <stop offset="1" stop-color="#66C93D"/>
    </linearGradient>
    <linearGradient id="paint2_linear" x1="928" y1="282" x2="1058" y2="376" gradientUnits="userSpaceOnUse">
      <stop stop-color="#FF7A18"/>
      <stop offset="1" stop-color="#FF4D6D"/>
    </linearGradient>
  </defs>
</svg>
