<svg width="1200" height="720" viewBox="0 0 1200 720" fill="none" xmlns="http://www.w3.org/2000/svg">
  <rect width="1200" height="720" rx="34" fill="#081524"/>
  <rect x="44" y="40" width="1112" height="640" rx="28" fill="#10233B"/>
  <rect x="88" y="88" width="1024" height="74" rx="22" fill="#142E4B"/>
  <rect x="126" y="110" width="164" height="26" rx="13" fill="#DFF4FF"/>
  <rect x="868" y="108" width="200" height="30" rx="15" fill="#62F3FF" fill-opacity="0.18"/>
  <rect x="88" y="196" width="254" height="430" rx="26" fill="#0C1D31"/>
  <rect x="380" y="196" width="330" height="190" rx="28" fill="#0D2139"/>
  <rect x="748" y="196" width="326" height="190" rx="28" fill="#0D2139"/>
  <rect x="380" y="420" width="694" height="206" rx="28" fill="#0C1D31"/>
  <circle cx="216" cy="302" r="56" fill="#62F3FF" fill-opacity="0.22"/>
  <path d="M182 300H251L237 354H196L182 300Z" stroke="#62F3FF" stroke-width="10" stroke-linejoin="round"/>
  <circle cx="204" cy="377" r="11" fill="#CAFF70"/>
  <circle cx="236" cy="377" r="11" fill="#CAFF70"/>
  <rect x="132" y="456" width="162" height="18" rx="9" fill="#DFF4FF"/>
  <rect x="132" y="492" width="132" height="14" rx="7" fill="#819BB7"/>
  <rect x="132" y="522" width="144" height="14" rx="7" fill="#819BB7"/>
  <rect x="412" y="232" width="266" height="114" rx="24" fill="url(#paint0_linear)"/>
  <rect x="780" y="232" width="262" height="114" rx="24" fill="url(#paint1_linear)"/>
  <rect x="412" y="462" width="300" height="24" rx="12" fill="#DFF4FF"/>
  <rect x="412" y="504" width="540" height="14" rx="7" fill="#819BB7"/>
  <rect x="412" y="534" width="488" height="14" rx="7" fill="#819BB7"/>
  <rect x="412" y="564" width="260" height="34" rx="17" fill="#FF7A18"/>
  <text x="490" y="586" fill="#08111F" font-family="Arial, sans-serif" font-size="22" font-weight="700">Order Flow</text>
  <defs>
    <linearGradient id="paint0_linear" x1="412" y1="232" x2="678" y2="346" gradientUnits="userSpaceOnUse">
      <stop stop-color="#62F3FF"/>
      <stop offset="1" stop-color="#1287D3"/>
    </linearGradient>
    <linearGradient id="paint1_linear" x1="780" y1="232" x2="1042" y2="346" gradientUnits="userSpaceOnUse">
      <stop stop-color="#FF7A18"/>
      <stop offset="1" stop-color="#FF4D6D"/>
    </linearGradient>
  </defs>
</svg>
