<svg width="1200" height="720" viewBox="0 0 1200 720" fill="none" xmlns="http://www.w3.org/2000/svg">
  <rect width="1200" height="720" rx="34" fill="#081524"/>
  <rect x="56" y="52" width="1088" height="616" rx="30" fill="#10233B"/>
  <rect x="98" y="96" width="1004" height="90" rx="24" fill="#122B45"/>
  <rect x="98" y="222" width="236" height="400" rx="28" fill="#0D1D31"/>
  <rect x="368" y="222" width="734" height="190" rx="28" fill="#0D1D31"/>
  <rect x="368" y="446" width="734" height="176" rx="28" fill="#0D1D31"/>
  <circle cx="216" cy="292" r="52" fill="#62F3FF" fill-opacity="0.22"/>
  <path d="M184 320C201 297 230 297 248 320" stroke="#62F3FF" stroke-width="10" stroke-linecap="round"/>
  <circle cx="216" cy="276" r="18" fill="#62F3FF"/>
  <rect x="150" y="388" width="132" height="18" rx="9" fill="#DFF4FF"/>
  <rect x="150" y="422" width="98" height="14" rx="7" fill="#819BB7"/>
  <rect x="150" y="452" width="116" height="14" rx="7" fill="#819BB7"/>
  <rect x="412" y="262" width="246" height="24" rx="12" fill="#DFF4FF"/>
  <rect x="412" y="306" width="610" height="14" rx="7" fill="#819BB7"/>
  <rect x="412" y="338" width="556" height="14" rx="7" fill="#819BB7"/>
  <rect x="412" y="484" width="210" height="94" rx="20" fill="url(#paint0_linear)"/>
  <rect x="648" y="484" width="190" height="94" rx="20" fill="url(#paint1_linear)"/>
  <rect x="864" y="484" width="196" height="94" rx="20" fill="url(#paint2_linear)"/>
  <defs>
    <linearGradient id="paint0_linear" x1="412" y1="484" x2="622" y2="578" gradientUnits="userSpaceOnUse">
      <stop stop-color="#CAFF70"/>
      <stop offset="1" stop-color="#57C13B"/>
    </linearGradient>
    <linearGradient id="paint1_linear" x1="648" y1="484" x2="838" y2="578" gradientUnits="userSpaceOnUse">
      <stop stop-color="#62F3FF"/>
      <stop offset="1" stop-color="#1681CC"/>
    </linearGradient>
    <linearGradient id="paint2_linear" x1="864" y1="484" x2="1060" y2="578" gradientUnits="userSpaceOnUse">
      <stop stop-color="#FF7A18"/>
      <stop offset="1" stop-color="#FF4D6D"/>
    </linearGradient>
  </defs>
</svg>
