<svg width="1200" height="700" viewBox="0 0 1200 700" fill="none" xmlns="http://www.w3.org/2000/svg">
  <rect width="1200" height="700" rx="34" fill="#081524"/>
  <rect x="64" y="58" width="1072" height="584" rx="30" fill="#10233B"/>
  <rect x="106" y="102" width="988" height="100" rx="26" fill="#122C47"/>
  <rect x="106" y="238" width="292" height="358" rx="28" fill="#0D1D31"/>
  <rect x="430" y="238" width="310" height="358" rx="28" fill="#0D1D31"/>
  <rect x="772" y="238" width="322" height="358" rx="28" fill="#0D1D31"/>
  <rect x="156" y="138" width="212" height="24" rx="12" fill="#DFF4FF"/>
  <rect x="196" y="306" width="112" height="112" rx="30" fill="url(#paint0_linear)"/>
  <rect x="498" y="306" width="174" height="24" rx="12" fill="#DFF4FF"/>
  <rect x="498" y="350" width="170" height="14" rx="7" fill="#819BB7"/>
  <rect x="498" y="382" width="144" height="14" rx="7" fill="#819BB7"/>
  <rect x="826" y="298" width="214" height="182" rx="24" fill="url(#paint1_linear)"/>
  <path d="M858 440L900 390L934 420L1004 332" stroke="#08111F" stroke-width="10" stroke-linecap="round" stroke-linejoin="round"/>
  <defs>
    <linearGradient id="paint0_linear" x1="196" y1="306" x2="308" y2="418" gradientUnits="userSpaceOnUse">
      <stop stop-color="#62F3FF"/>
      <stop offset="1" stop-color="#1681CC"/>
    </linearGradient>
    <linearGradient id="paint1_linear" x1="826" y1="298" x2="1040" y2="480" gradientUnits="userSpaceOnUse">
      <stop stop-color="#CAFF70"/>
      <stop offset="1" stop-color="#FF7A18"/>
    </linearGradient>
  </defs>
</svg>
