<svg width="1200" height="720" viewBox="0 0 1200 720" fill="none" xmlns="http://www.w3.org/2000/svg">
  <rect width="1200" height="720" rx="34" fill="#081524"/>
  <rect x="62" y="56" width="1076" height="608" rx="30" fill="#10233B"/>
  <rect x="116" y="100" width="970" height="90" rx="24" fill="#132E4A"/>
  <rect x="116" y="228" width="444" height="384" rx="28" fill="#0D1D31"/>
  <rect x="594" y="228" width="492" height="170" rx="28" fill="#0D1D31"/>
  <rect x="594" y="442" width="492" height="170" rx="28" fill="#0D1D31"/>
  <rect x="170" y="278" width="338" height="242" rx="22" fill="#F6F9FF"/>
  <path d="M216 466C284 390 304 496 370 438C406 406 424 432 456 402" stroke="#08111F" stroke-width="8" stroke-linecap="round"/>
  <rect x="648" y="270" width="224" height="24" rx="12" fill="#DFF4FF"/>
  <rect x="648" y="314" width="392" height="14" rx="7" fill="#819BB7"/>
  <rect x="648" y="482" width="192" height="92" rx="20" fill="url(#paint0_linear)"/>
  <rect x="864" y="482" width="176" height="92" rx="20" fill="url(#paint1_linear)"/>
  <defs>
    <linearGradient id="paint0_linear" x1="648" y1="482" x2="840" y2="574" gradientUnits="userSpaceOnUse">
      <stop stop-color="#62F3FF"/>
      <stop offset="1" stop-color="#1681CC"/>
    </linearGradient>
    <linearGradient id="paint1_linear" x1="864" y1="482" x2="1040" y2="574" gradientUnits="userSpaceOnUse">
      <stop stop-color="#FF7A18"/>
      <stop offset="1" stop-color="#FF4D6D"/>
    </linearGradient>
  </defs>
</svg>
